<svg xmlns="http://www.w3.org/2000/svg" xmlns:xlink="http://www.w3.org/1999/xlink" width="1024" zoomAndPan="magnify" viewBox="0 0 768 284.999983" height="380" preserveAspectRatio="xMidYMid meet" version="1.0"><defs><clipPath id="f0ca6e9a24"><path d="M 623 0 L 768 0 L 768 96 L 623 96 Z M 623 0 " clip-rule="nonzero"/></clipPath><clipPath id="35f83f79a9"><path d="M 598.976562 64.886719 L 654.300781 -160.855469 L 880.046875 -105.535156 L 824.722656 120.210938 Z M 598.976562 64.886719 " clip-rule="nonzero"/></clipPath><clipPath id="6e5b6f27ba"><path d="M 685.199219 -121.792969 C 676.746094 -119.332031 670.699219 -112.589844 668.738281 -104.613281 C 666.773438 -96.636719 660.730469 -89.894531 652.273438 -87.429688 C 639.65625 -83.757812 632.40625 -70.554688 636.082031 -57.933594 L 636.074219 -57.933594 C 638.347656 -50.101562 636.523438 -41.308594 630.535156 -34.960938 C 627.519531 -31.867188 625.5 -28.222656 624.480469 -24.027344 C 622.382812 -15.472656 625.199219 -6.867188 631.128906 -1.179688 L 631.125 -1.179688 C 637.054688 4.511719 639.871094 13.117188 637.773438 21.667969 C 634.648438 34.433594 642.457031 47.316406 655.222656 50.441406 L 655.222656 50.445312 L 655.21875 50.449219 C 663.136719 52.398438 669.835938 58.367188 672.34375 66.71875 C 673.511719 70.882812 675.660156 74.457031 678.785156 77.445312 C 685.148438 83.535156 694.007812 85.398438 701.898438 83.109375 C 709.789062 80.824219 718.648438 82.6875 725.007812 88.777344 C 734.496094 97.867188 749.558594 97.546875 758.648438 88.054688 L 758.652344 88.054688 L 758.652344 88.058594 C 764.339844 82.132812 772.949219 79.316406 781.5 81.414062 C 794.265625 84.539062 807.148438 76.730469 810.273438 63.964844 C 812.371094 55.414062 818.847656 49.085938 826.734375 46.78125 C 834.617188 44.476562 841.097656 38.148438 843.195312 29.59375 C 844.226562 25.402344 844.121094 21.234375 842.878906 17.097656 C 840.503906 8.703125 842.953125 0.0625 848.589844 -5.832031 L 848.582031 -5.835938 L 848.585938 -5.835938 C 857.675781 -15.324219 857.351562 -30.386719 847.863281 -39.476562 C 841.503906 -45.570312 839.261719 -54.34375 841.210938 -62.324219 L 841.207031 -62.324219 C 843.160156 -70.304688 840.914062 -79.078125 834.554688 -85.167969 C 831.425781 -88.167969 827.6875 -90.144531 823.757812 -91.101562 L 823.761719 -91.105469 C 816.066406 -92.996094 809.519531 -98.691406 806.859375 -106.679688 C 805.808594 -110.890625 803.597656 -114.867188 800.234375 -118.085938 C 793.871094 -124.183594 785.011719 -126.046875 777.121094 -123.753906 L 777.121094 -123.757812 C 769.230469 -121.46875 760.371094 -123.332031 754.007812 -129.421875 C 744.519531 -138.515625 729.460938 -138.191406 720.367188 -128.699219 L 720.367188 -128.703125 C 714.722656 -122.824219 706.207031 -120.007812 697.71875 -122.007812 C 693.734375 -123.027344 689.433594 -123.027344 685.199219 -121.792969 " clip-rule="nonzero"/></clipPath></defs><rect x="-76.8" width="921.6" fill="#ffffff" y="-28.499998" height="341.99998" fill-opacity="1"/><rect x="-76.8" width="921.6" fill="#ffffff" y="-28.499998" height="341.99998" fill-opacity="1"/><rect x="-76.8" width="921.6" fill="#ddbfec" y="-28.499998" height="341.99998" fill-opacity="1"/><g clip-path="url(#f0ca6e9a24)"><g clip-path="url(#35f83f79a9)"><g clip-path="url(#6e5b6f27ba)"><path fill="#e8aad0" d="M 603.335938 62.246094 L 656.941406 -156.496094 L 875.6875 -102.890625 L 822.082031 115.851562 Z M 603.335938 62.246094 " fill-opacity="1" fill-rule="nonzero"/></g></g></g></svg>